<svg viewBox="0 0 14 14" fill="none" xmlns="http://www.w3.org/2000/svg">
    <path
        d="M6.99218 0C7.96201 0 8.87189 0.185102 9.72179 0.555307C10.5717 0.925513 11.3147 1.42607 11.9508 2.05698C12.587 2.6879 13.0875 3.42831 13.4525 4.27821C13.8175 5.12812 14 6.03799 14 7.00782C14 7.97765 13.8175 8.88492 13.4525 9.72961C13.0875 10.5743 12.587 11.3147 11.9508 11.9508C11.3147 12.587 10.5717 13.0875 9.72179 13.4525C8.87188 13.8175 7.96201 14 6.99218 14C6.02235 14 5.11508 13.8175 4.27039 13.4525C3.4257 13.0875 2.68529 12.587 2.04916 11.9508C1.41303 11.3147 0.912476 10.5743 0.547486 9.72961C0.182496 8.88492 0 7.97765 0 7.00782C0 6.03799 0.182496 5.12811 0.547486 4.27821C0.912476 3.42831 1.41303 2.68789 2.04916 2.05698C2.68529 1.42607 3.4257 0.925513 4.27039 0.555307C5.11508 0.185102 6.02235 0 6.99218 0ZM7.00782 11.7944C7.27896 11.7944 7.50577 11.7032 7.68827 11.5207C7.87076 11.3382 7.96201 11.1166 7.96201 10.8559C7.96201 10.5847 7.87076 10.3579 7.68827 10.1754C7.50577 9.99292 7.27896 9.90168 7.00782 9.90168C6.73669 9.90168 6.50987 9.99292 6.32737 10.1754C6.14488 10.3579 6.05363 10.5847 6.05363 10.8559C6.05363 11.1166 6.14488 11.3382 6.32737 11.5207C6.50987 11.7032 6.73669 11.7944 7.00782 11.7944ZM7.80559 7.94637C7.79516 7.77952 7.89944 7.60223 8.11844 7.41453C8.33743 7.22682 8.5825 7.01825 8.85363 6.78883C9.12477 6.5594 9.37505 6.3013 9.60447 6.01453C9.83389 5.72775 9.95903 5.39665 9.97989 5.02123C10.0007 4.61453 9.95903 4.23389 9.85475 3.87933C9.75047 3.52477 9.5784 3.21974 9.33855 2.96425C9.0987 2.70875 8.78845 2.5054 8.40782 2.35419C8.02719 2.20298 7.58138 2.12737 7.07039 2.12737C6.43426 2.12737 5.90503 2.23948 5.48268 2.46369C5.06034 2.6879 4.71881 2.95903 4.4581 3.2771C4.19739 3.59516 4.0149 3.92365 3.91061 4.26257C3.80633 4.60149 3.7594 4.88566 3.76983 5.11508C3.78026 5.38622 3.86629 5.58436 4.02793 5.7095C4.18957 5.83464 4.36425 5.89981 4.55196 5.90503C4.73967 5.91024 4.91173 5.8581 5.06816 5.7486C5.22458 5.63911 5.30279 5.48007 5.30279 5.27151C5.30279 5.14637 5.3419 4.99255 5.42011 4.81006C5.49832 4.62756 5.60521 4.45289 5.74078 4.28603C5.87635 4.11918 6.0406 3.9784 6.23352 3.86369C6.42644 3.74898 6.64283 3.69162 6.88268 3.69162C7.35195 3.69162 7.72737 3.80894 8.00894 4.04358C8.2905 4.27821 8.42086 4.57281 8.4 4.92737C8.4 5.10465 8.34786 5.2689 8.24358 5.42011C8.13929 5.57132 8.00633 5.71732 7.84469 5.8581C7.68305 5.99888 7.51099 6.13967 7.32849 6.28045C7.146 6.42123 6.97393 6.56722 6.81229 6.71844C6.65065 6.86965 6.51508 7.03389 6.40559 7.21117C6.29609 7.38845 6.23613 7.58138 6.2257 7.78994L6.24134 8.38436C6.24134 8.54078 6.31434 8.68939 6.46034 8.83017C6.60633 8.97095 6.79926 9.04655 7.03911 9.05698C7.27896 9.04656 7.46927 8.96834 7.61006 8.82235C7.75084 8.67635 7.81602 8.5095 7.80559 8.32179V7.94637Z"
        fill="#CCCCCC" />
</svg>
