<svg width="35" height="35" viewBox="0 0 35 35" fill="none" xmlns="http://www.w3.org/2000/svg">
    <path fill-rule="evenodd" clip-rule="evenodd"
        d="M17.5 35C27.165 35 35 27.165 35 17.5C35 7.83502 27.165 0 17.5 0C7.83502 0 0 7.83502 0 17.5C0 27.165 7.83502 35 17.5 35Z"
        fill="currentColor" />
    <path fill-rule="evenodd" clip-rule="evenodd"
        d="M24.1741 16.687C24.5832 16.2728 25.1391 16.007 25.7707 16.007C28.1016 16.0086 28.8757 19.1761 26.7732 20.2711C26.8657 20.6094 26.9032 20.9861 26.9032 21.3453C26.9032 24.9294 22.9241 27.8336 18.0174 27.8336C13.1316 27.8336 9.15247 24.9294 9.15247 21.3453C9.15247 20.9861 9.18664 20.6261 9.26247 20.2886C7.11664 19.1978 7.88414 16.007 10.2274 16.007C10.8591 16.007 11.4366 16.2728 11.8458 16.7045C13.3549 15.647 15.3616 14.9678 17.5916 14.8736L18.8732 8.98865C18.9282 8.77865 19.1307 8.62865 19.3374 8.68449L23.4432 9.60782C23.7224 9.06449 24.2824 8.66699 24.9316 8.66699C25.8632 8.66699 26.6041 9.44115 26.6041 10.3653C26.6041 11.2895 25.8582 12.0636 24.9307 12.0636C24.0207 12.0636 23.2791 11.3095 23.2791 10.3861L19.5616 9.53948L18.3941 14.8778C20.6416 14.9503 22.6699 15.6303 24.1741 16.687ZM14.3407 18.817C13.4091 18.817 12.6674 19.5744 12.6674 20.5153C12.6674 21.4394 13.4132 22.1969 14.3407 22.1928C15.2516 22.1928 15.9932 21.4394 15.9932 20.5153C15.9932 19.5694 15.2507 18.817 14.3407 18.817ZM21.6999 24.5136C20.1657 26.0703 15.8366 26.0703 14.3016 24.5136C14.1324 24.3636 14.1324 24.0986 14.3016 23.9278C14.4491 23.7778 14.7107 23.7778 14.8582 23.9278C16.0299 25.1469 19.9166 25.1678 21.1391 23.9278C21.2866 23.7778 21.5482 23.7778 21.6957 23.9278C21.8682 24.0994 21.8682 24.3644 21.6999 24.5136ZM20.0141 20.5203C20.0141 21.4436 20.7557 22.1961 21.6657 22.1961C22.5932 22.1961 23.3349 21.4394 23.3391 20.5203C23.3391 19.5744 22.5932 18.822 21.6657 18.822C20.7557 18.822 20.0141 19.5794 20.0141 20.5203Z"
        fill="#E1E1E1" />
</svg>
