<svg width="35" height="35" viewBox="0 0 35 35" fill="none" xmlns="http://www.w3.org/2000/svg">
    <path
        d="M17.5 35C27.165 35 35 27.165 35 17.5C35 7.83502 27.165 0 17.5 0C7.83502 0 0 7.83502 0 17.5C0 27.165 7.83502 35 17.5 35Z"
        fill="currentColor" />
    <path
        d="M16.334 20.3938L24.0866 26L28 10L8 17.535L14.0858 19.4657L25.1924 12.3301L16.334 20.3938Z"
        fill="white" />
    <path d="M19.1715 22.4265L15.6504 25.9998L16.3336 20.3936L19.1715 22.4265Z" fill="#5B5B5B" />
    <path d="M14.0859 19.4657L15.6509 26L16.3341 20.3938L25.1926 12.3301L14.0859 19.4657Z"
        fill="#797979" />
</svg>
